name rise49.8558peak67.6521fall70.3087.mot
datacolumns 19
datarows 33
range 2.52499500000000 2.57832300000000
endheader
time	ground_force1_vx	ground_force1_vy	ground_force1_vz	ground_force1_px	ground_force1_py	ground_force1_pz	ground_force2_vx	ground_force2_vy	ground_force2_vz	ground_force2_px	ground_force2_py	ground_force2_pz	ground_torque1_x	ground_torque1_y	ground_torque1_z	ground_torque2_x	ground_torque2_y	ground_torque2_z	
2.52499500000000	-56.96599700000000	820.76437499999997	66.86832300000000	0.11534700000000	0.00000000000000	0.09818000000000	-0.90858000000000	6.81282700000000	0.77735500000000	0.00000000000000	0.00000000000000	0.00000000000000	0.00000000000000	26.47440100000000	0.00000000000000	0.00000000000000	0.16533600000000	0.00000000000000	
2.52665900000000	-57.06629500000000	819.47339799999997	66.90956700000000	0.11475100000000	0.00000000000000	0.09812100000000	-1.31942900000000	10.74676000000000	1.15452800000000	0.00000000000000	0.00000000000000	0.00000000000000	0.00000000000000	26.35472900000000	0.00000000000000	0.00000000000000	0.25860500000000	0.00000000000000	
2.52832200000000	-57.15698500000000	818.03977399999997	66.92815100000000	0.11418100000000	0.00000000000000	0.09805800000000	-1.77035000000000	15.31246500000000	1.57648500000000	0.00000000000000	0.00000000000000	0.00000000000000	0.00000000000000	26.23044700000000	0.00000000000000	0.00000000000000	0.36605600000000	0.00000000000000	
2.52999500000000	-57.23895200000000	816.46269600000005	66.92337300000000	0.11363800000000	0.00000000000000	0.09799000000000	-2.24636800000000	20.43735800000000	2.03190000000000	0.00000000000000	0.00000000000000	0.00000000000000	0.00000000000000	26.10171700000000	0.00000000000000	0.00000000000000	0.48565700000000	0.00000000000000	
2.53165300000000	-57.31311000000000	814.74153899999999	66.89456600000000	0.11312100000000	0.00000000000000	0.09791800000000	-2.73003100000000	26.02452700000000	2.50721400000000	0.34304700000000	0.00000000000000	-0.09843700000000	0.00000000000000	25.96870500000000	0.00000000000000	0.00000000000000	1.20612200000000	0.00000000000000	
2.53332300000000	-57.38040500000000	812.87585799999999	66.84109800000000	0.11262900000000	0.00000000000000	0.09784200000000	-3.20259700000000	31.96087300000000	2.98762900000000	0.35178200000000	0.00000000000000	-0.09827200000000	0.00000000000000	25.83157700000000	0.00000000000000	0.00000000000000	1.48659200000000	0.00000000000000	
2.53499300000000	-57.44180400000000	810.86538099999996	66.76237200000000	0.11216100000000	0.00000000000000	0.09776000000000	-3.64535100000000	38.12683300000000	3.45821900000000	0.35974300000000	0.00000000000000	-0.09812600000000	0.00000000000000	25.69049800000000	0.00000000000000	0.00000000000000	1.77546900000000	0.00000000000000	
2.53665900000000	-57.49829400000000	808.70999900000004	66.65783500000001	0.11171700000000	0.00000000000000	0.09767400000000	-4.04087200000000	44.40629500000000	3.90501900000000	0.36701900000000	0.00000000000000	-0.09799800000000	0.00000000000000	25.54563600000000	0.00000000000000	0.00000000000000	2.06515800000000	0.00000000000000	
2.53832800000000	-57.55087200000000	806.40976000000001	66.52697400000000	0.11129600000000	0.00000000000000	0.09758300000000	-4.37409600000000	50.69540100000000	4.31595000000000	0.37368500000000	0.00000000000000	-0.09788700000000	0.00000000000000	25.39715400000000	0.00000000000000	0.00000000000000	2.34858400000000	0.00000000000000	
2.53999000000000	-57.60054700000000	803.96486400000003	66.36931900000000	0.11089600000000	0.00000000000000	0.09748700000000	-4.63306500000000	56.90928500000000	4.68147300000000	0.37980200000000	0.00000000000000	-0.09779300000000	0.00000000000000	25.24521700000000	0.00000000000000	0.00000000000000	2.61965000000000	0.00000000000000	
2.54165500000000	-57.64832600000000	801.37564699999996	66.18444800000000	0.11051700000000	0.00000000000000	0.09738700000000	-4.80932700000000	62.98630600000000	4.99495300000000	0.38542300000000	0.00000000000000	-0.09771600000000	0.00000000000000	25.08998500000000	0.00000000000000	0.00000000000000	2.87354800000000	0.00000000000000	
2.54332200000000	-57.69521500000000	798.64257699999996	65.97198400000001	0.11015700000000	0.00000000000000	0.09728100000000	-4.89798600000000	68.88970800000000	5.25272900000000	0.39059000000000	0.00000000000000	-0.09765400000000	0.00000000000000	24.93161700000000	0.00000000000000	0.00000000000000	3.10692200000000	0.00000000000000	
2.54498800000000	-57.74221100000000	795.76624500000003	65.73160000000000	0.10981500000000	0.00000000000000	0.09717000000000	-4.89746700000000	74.60696299999999	5.45392300000000	0.39534400000000	0.00000000000000	-0.09760800000000	0.00000000000000	24.77026800000000	0.00000000000000	0.00000000000000	3.31788100000000	0.00000000000000	
2.54665800000000	-57.79029100000000	792.74735199999998	65.46302000000000	0.10949000000000	0.00000000000000	0.09705500000000	-4.80904600000000	80.14722500000001	5.60006300000000	0.39971700000000	0.00000000000000	-0.09757500000000	0.00000000000000	24.60608800000000	0.00000000000000	0.00000000000000	3.50588600000000	0.00000000000000	
2.54832200000000	-57.84041600000000	789.58669899999995	65.16601799999999	0.10917900000000	0.00000000000000	0.09693400000000	-4.63623800000000	85.53744200000000	5.69456000000000	0.40373900000000	0.00000000000000	-0.09755700000000	0.00000000000000	24.43922600000000	0.00000000000000	0.00000000000000	3.67154600000000	0.00000000000000	
2.54999100000000	-57.89351400000000	786.28517999999997	64.84042300000000	0.10888200000000	0.00000000000000	0.09680800000000	-4.38410900000000	90.81766700000000	5.74213900000000	0.40743500000000	0.00000000000000	-0.09755300000000	0.00000000000000	24.26982200000000	0.00000000000000	0.00000000000000	3.81635200000000	0.00000000000000	
2.55165500000000	-57.95048300000000	782.84376899999995	64.48611500000000	0.10859700000000	0.00000000000000	0.09667800000000	-4.05859200000000	96.03612000000000	5.74824500000000	0.41082900000000	0.00000000000000	-0.09756100000000	0.00000000000000	24.09801500000000	0.00000000000000	0.00000000000000	3.94238300000000	0.00000000000000	
2.55332000000000	-58.01217900000000	779.26351099999999	64.10303100000000	0.10832100000000	0.00000000000000	0.09654300000000	-3.66585100000000	101.24441500000000	5.71850200000000	0.41394200000000	0.00000000000000	-0.09758200000000	0.00000000000000	23.92393600000000	0.00000000000000	0.00000000000000	4.05201300000000	0.00000000000000	
2.55499400000000	-58.07941000000000	775.54551000000004	63.69116200000000	0.10805400000000	0.00000000000000	0.09640200000000	-3.21174600000000	106.49332900000000	5.65825300000000	0.41679100000000	0.00000000000000	-0.09761400000000	0.00000000000000	23.74771200000000	0.00000000000000	0.00000000000000	4.14765500000000	0.00000000000000	
2.55665600000000	-58.15293600000000	771.69092200000000	63.25055600000000	0.10779400000000	0.00000000000000	0.09625700000000	-2.70141900000000	111.82933700000000	5.57219300000000	0.41939400000000	0.00000000000000	-0.09765800000000	0.00000000000000	23.56946500000000	0.00000000000000	0.00000000000000	4.23153400000000	0.00000000000000	
2.55832300000000	-58.23345500000000	767.70094099999994	62.78131700000000	0.10753800000000	0.00000000000000	0.09610700000000	-2.13900900000000	117.29205500000000	5.46412100000000	0.42176700000000	0.00000000000000	-0.09771200000000	0.00000000000000	23.38931000000000	0.00000000000000	0.00000000000000	4.30552700000000	0.00000000000000	
2.55998900000000	-58.32160400000000	763.57679299999995	62.28360400000000	0.10728500000000	0.00000000000000	0.09595200000000	-1.52750600000000	122.91261799999999	5.33680400000000	0.42392400000000	0.00000000000000	-0.09777600000000	0.00000000000000	23.20735800000000	0.00000000000000	0.00000000000000	4.37105600000000	0.00000000000000	
2.56166100000000	-58.41794700000000	759.31972399999995	61.75763500000000	0.10703300000000	0.00000000000000	0.09579200000000	-0.86871800000000	128.71295400000000	5.19194200000000	0.42587700000000	0.00000000000000	-0.09785100000000	0.00000000000000	23.02371200000000	0.00000000000000	0.00000000000000	4.42903800000000	0.00000000000000	
2.56332400000000	-58.52297800000000	754.93099299999994	61.20368300000000	0.10678000000000	0.00000000000000	0.09562800000000	-0.16334400000000	134.70584400000001	5.03021400000000	0.42764000000000	0.00000000000000	-0.09793400000000	0.00000000000000	22.83847100000000	0.00000000000000	0.00000000000000	4.47988300000000	0.00000000000000	
2.56498600000000	-58.63710600000000	750.41186000000005	60.62207700000000	0.10652400000000	0.00000000000000	0.09545900000000	0.58888300000000	140.89561300000000	4.85140700000000	0.42922300000000	0.00000000000000	-0.09802600000000	0.00000000000000	22.65172700000000	0.00000000000000	0.00000000000000	4.52354000000000	0.00000000000000	
2.56665900000000	-58.76065900000000	745.76358100000004	60.01320200000000	0.10626300000000	0.00000000000000	0.09528600000000	1.38899100000000	147.27929900000001	4.65457200000000	0.43063600000000	0.00000000000000	-0.09812600000000	0.00000000000000	22.46356600000000	0.00000000000000	0.00000000000000	4.55956400000000	0.00000000000000	
2.56832500000000	-58.89387400000000	740.98739799999998	59.37749800000000	0.10599600000000	0.00000000000000	0.09510800000000	2.23854300000000	153.84810899999999	4.43822200000000	0.43189100000000	0.00000000000000	-0.09823400000000	0.00000000000000	22.27407000000000	0.00000000000000	0.00000000000000	4.58721100000000	0.00000000000000	
2.56999200000000	-59.03689500000000	736.08453099999997	58.71545900000000	0.10572000000000	0.00000000000000	0.09492600000000	3.13940100000000	160.58900299999999	4.20052700000000	0.43299600000000	0.00000000000000	-0.09834900000000	0.00000000000000	22.08331300000000	0.00000000000000	0.00000000000000	4.60553400000000	0.00000000000000	
2.57165500000000	-59.18976900000000	731.05617500000005	58.02763400000000	0.10543500000000	0.00000000000000	0.09474000000000	4.09350700000000	167.48627200000001	3.93950200000000	0.43396000000000	0.00000000000000	-0.09847100000000	0.00000000000000	21.89136400000000	0.00000000000000	0.00000000000000	4.61348600000000	0.00000000000000	
2.57332100000000	-59.35244300000000	725.90349100000003	57.31462200000000	0.10513700000000	0.00000000000000	0.09455000000000	5.10268400000000	174.52299300000001	3.65317900000000	0.43479100000000	0.00000000000000	-0.09859900000000	0.00000000000000	21.69828600000000	0.00000000000000	0.00000000000000	4.61000700000000	0.00000000000000	
2.57498600000000	-59.52475900000000	720.62760200000002	56.57707300000000	0.10482600000000	0.00000000000000	0.09435500000000	6.16847700000000	181.68226400000000	3.33974300000000	0.43549800000000	0.00000000000000	-0.09873200000000	0.00000000000000	21.50413500000000	0.00000000000000	0.00000000000000	4.59410000000000	0.00000000000000	
2.57666000000000	-59.70645700000000	715.22958800000004	55.81568700000000	0.10450000000000	0.00000000000000	0.09415700000000	7.29203200000000	188.94819100000001	2.99763800000000	0.43608700000000	0.00000000000000	-0.09887100000000	0.00000000000000	21.30896200000000	0.00000000000000	0.00000000000000	4.56489500000000	0.00000000000000	
2.57832300000000	-59.89716500000000	709.71048599999995	55.03121400000000	0.10415700000000	0.00000000000000	0.09395500000000	8.47401800000000	196.30659100000000	2.62563600000000	0.43656600000000	0.00000000000000	-0.09901500000000	0.00000000000000	21.11281300000000	0.00000000000000	0.00000000000000	4.52169000000000	0.00000000000000	
